# xmcd
#
# Track frame offsets: 
#        150
#        20160
#        37751
#        53585
#        74788
#        92154
#        115340
#        137358
#        152256
#        177387
#        202091
#        224783
#        243270
#
# Disc length: 3477 seconds
#
# Revision: 2
# Processed by: cddbd v1.5.2PL0 Copyright (c) Steve Scherf et al.
# Submitted via: ExactAudioCopy v0.99pb3
#
DISCID=ba0d930d
DTITLE=金善姬 - 裸音II
DYEAR=2006
DGENRE=Blues
TTITLE0=女兒情
TTITLE1=都是你
TTITLE2=倆倆相忘
TTITLE3=絕口不提愛你
TTITLE4=大城小愛
TTITLE5=真的
TTITLE6=人間
TTITLE7=花
TTITLE8=我的心好亂
TTITLE9=離別的車站
TTITLE10=彩虹
TTITLE11=愛如潮水
TTITLE12=童年
EXTD=
EXTT0=
EXTT1=
EXTT2=
EXTT3=
EXTT4=
EXTT5=
EXTT6=
EXTT7=
EXTT8=
EXTT9=
EXTT10=
EXTT11=
EXTT12=
PLAYORDER=
